<?xml version="1.0" standalone="no"?>
<!DOCTYPE svg PUBLIC "-//W3C//DTD SVG 20010904//EN"
 "http://www.w3.org/TR/2001/REC-SVG-20010904/DTD/svg10.dtd">
<svg version="1.0" xmlns="http://www.w3.org/2000/svg"
 width="1800.000000pt" height="1800.000000pt" viewBox="0 0 1800.000000 1800.000000"
 preserveAspectRatio="xMidYMid meet">
<metadata>
Created by potrace 1.11, written by Peter Selinger 2001-2013
</metadata>
<g transform="translate(0.000000,1800.000000) scale(0.100000,-0.100000)"
fill="#000000" stroke="none">
<path d="M33 17993 c20 -2 54 -2 75 0 20 2 3 4 -38 4 -41 0 -58 -2 -37 -4z"/>
<path d="M158 17993 c7 -3 16 -2 19 1 4 3 -2 6 -13 5 -11 0 -14 -3 -6 -6z"/>
<path d="M788 14522 c-16 -2 -28 -5 -28 -7 0 -11 44 -112 95 -220 75 -157 116
-245 180 -385 29 -63 112 -240 184 -393 72 -153 131 -280 131 -282 0 -3 34
-75 75 -161 41 -86 75 -158 75 -159 0 -2 28 -61 61 -131 34 -71 78 -167 99
-214 21 -47 66 -143 100 -215 34 -71 105 -222 157 -335 52 -113 142 -304 198
-425 57 -122 130 -279 163 -350 85 -185 121 -262 196 -419 36 -76 66 -140 66
-142 0 -2 21 -48 46 -101 25 -54 77 -163 114 -243 37 -80 87 -185 110 -235
102 -216 130 -277 130 -280 0 -2 30 -66 66 -142 36 -76 76 -160 89 -188 39
-88 215 -466 286 -614 38 -79 69 -145 69 -147 0 -2 52 -115 116 -251 64 -137
156 -333 204 -438 83 -179 180 -387 427 -915 58 -124 119 -254 136 -290 42
-92 156 -337 212 -455 26 -55 84 -181 130 -280 46 -99 110 -237 143 -307 33
-69 84 -177 113 -240 29 -62 119 -256 201 -431 81 -174 148 -319 148 -321 0
-2 34 -75 76 -162 88 -184 126 -265 199 -424 29 -63 103 -223 165 -355 62
-132 125 -268 141 -302 15 -34 37 -67 48 -73 33 -17 101 -20 544 -25 320 -3
428 -1 446 8 30 15 62 75 159 297 43 99 203 451 246 543 25 55 46 100 46 102
0 1 36 78 80 169 44 92 80 169 80 170 0 2 25 56 55 120 30 64 55 118 55 120 0
2 29 64 64 137 114 239 176 371 176 375 0 2 27 60 60 130 33 69 60 128 60 129
0 2 30 65 66 141 36 77 85 182 109 234 24 52 63 138 88 190 126 267 287 612
287 615 0 3 61 133 150 320 26 55 71 152 100 215 29 63 72 158 97 210 44 93
68 144 275 590 55 118 118 254 139 302 21 48 43 95 48 105 6 10 24 47 40 83
16 36 47 105 70 153 23 49 41 90 41 92 0 1 25 56 56 121 58 124 78 167 187
399 36 77 88 190 117 250 29 61 67 142 85 180 18 39 72 153 119 253 47 101 86
185 86 187 0 2 30 65 66 141 36 77 94 200 129 274 34 74 81 173 103 220 113
240 142 303 142 305 0 2 27 61 61 132 87 182 139 294 139 297 0 2 24 55 54
117 94 200 146 309 236 504 48 105 129 278 180 385 51 107 130 278 177 380
130 283 132 286 147 264 7 -11 67 -136 133 -279 67 -143 233 -498 369 -790
136 -291 276 -593 311 -670 36 -77 128 -275 205 -440 77 -165 205 -437 283
-605 78 -168 218 -467 310 -665 92 -198 214 -459 270 -580 56 -121 146 -314
200 -430 54 -115 129 -275 166 -354 38 -79 69 -145 69 -147 0 -2 72 -157 160
-344 88 -187 160 -342 160 -344 0 -2 42 -93 94 -202 51 -110 113 -239 136
-289 23 -49 53 -115 67 -145 42 -93 142 -308 214 -459 38 -79 69 -145 69 -147
0 -4 55 -123 185 -399 26 -55 76 -163 112 -240 71 -151 177 -378 255 -544 27
-58 71 -152 98 -210 47 -105 85 -186 182 -391 28 -58 67 -143 88 -190 21 -47
61 -134 90 -195 83 -174 135 -286 227 -485 136 -294 172 -368 185 -376 12 -8
945 -14 966 -6 18 6 16 15 -33 119 -25 52 -45 97 -45 98 0 3 -69 150 -227 485
-25 52 -65 138 -88 190 -24 52 -67 145 -95 205 -99 210 -200 426 -200 430 0 2
-36 78 -80 170 -44 92 -80 168 -80 170 0 1 -27 61 -61 131 -34 71 -81 172
-104 224 -24 52 -69 149 -100 215 -99 209 -195 415 -195 419 0 2 -36 79 -80
171 -44 92 -80 168 -80 170 0 1 -31 69 -70 149 -39 81 -70 149 -70 151 0 2
-24 55 -54 117 -66 140 -119 253 -158 338 -17 36 -91 196 -165 355 -75 160
-177 380 -228 490 -95 205 -147 315 -230 490 -26 55 -64 138 -85 185 -21 47
-66 144 -100 215 -63 132 -78 164 -180 385 -69 151 -220 475 -421 902 -82 175
-149 319 -149 321 0 4 -27 61 -180 382 -29 61 -67 144 -85 185 -30 69 -60 132
-182 390 -25 52 -85 181 -133 285 -49 105 -111 240 -140 300 -29 61 -85 182
-125 270 -40 88 -119 257 -175 375 -56 118 -139 296 -185 395 -46 99 -102 221
-125 270 -24 50 -89 189 -145 310 -56 121 -139 300 -185 398 l-83 177 -493 0
-492 0 -50 -97 c-27 -54 -82 -168 -121 -255 -113 -252 -320 -699 -446 -968
-40 -85 -102 -218 -138 -295 -35 -77 -90 -193 -121 -259 -31 -65 -56 -120 -56
-121 0 -2 -29 -64 -65 -140 -36 -75 -65 -138 -65 -140 0 -2 -25 -57 -56 -122
-50 -104 -122 -258 -386 -828 -39 -82 -81 -175 -95 -205 -14 -30 -44 -95 -68
-145 -39 -83 -294 -629 -545 -1170 -56 -121 -140 -301 -185 -400 -46 -99 -127
-272 -180 -385 -204 -429 -265 -559 -265 -564 0 -2 -40 -88 -90 -190 -49 -103
-90 -189 -90 -191 0 -1 -34 -73 -75 -160 -41 -86 -75 -158 -75 -161 0 -2 -21
-48 -46 -101 -26 -54 -63 -134 -84 -178 -21 -44 -57 -120 -80 -170 -23 -49
-68 -146 -100 -215 -31 -69 -105 -226 -163 -350 -334 -715 -408 -874 -492
-1055 -51 -110 -119 -254 -150 -320 -31 -66 -74 -158 -95 -205 -83 -187 -279
-580 -290 -580 -6 0 -14 10 -19 22 -8 21 -109 237 -209 448 -60 127 -112 241
-112 245 0 2 -38 83 -85 180 -47 98 -85 178 -85 180 0 1 -25 56 -56 121 -30
66 -61 133 -69 149 -7 17 -32 71 -55 120 -24 50 -59 126 -80 170 -20 44 -51
109 -68 145 -17 36 -78 169 -137 295 -59 127 -126 268 -147 315 -48 103 -92
196 -125 270 -14 30 -44 93 -66 140 -79 169 -121 259 -217 465 -104 225 -289
622 -347 745 -20 41 -49 104 -65 140 -17 36 -55 116 -84 179 -30 62 -54 115
-54 117 0 2 -34 74 -75 160 -41 86 -75 158 -75 160 0 1 -34 73 -75 159 -41 87
-75 159 -75 161 0 2 -70 152 -155 334 -85 182 -155 332 -155 334 0 2 -29 64
-64 137 -131 276 -160 338 -236 504 -43 94 -132 286 -199 428 -67 141 -121
259 -121 261 0 3 -34 76 -76 163 -42 87 -98 208 -126 268 -28 61 -130 281
-228 490 -317 678 -470 1006 -470 1010 0 2 -38 83 -85 180 -47 98 -85 179 -85
180 0 2 -24 54 -54 117 -30 62 -65 138 -78 168 -14 30 -51 110 -83 178 -52
109 -61 122 -84 123 -92 3 -911 4 -933 1z"/>
</g>
</svg>
